<svg width="128" height="128" viewBox="0 0 128 128" xmlns="http://www.w3.org/2000/svg">
  <rect width="128" height="128" rx="28" fill="#EC1C24"/>
  <g transform="translate(13,17)"><rect x="21" y="7" width="14" height="14" fill="#fff"/><rect x="35" y="7" width="14" height="14" fill="#fff"/><rect x="49" y="7" width="14" height="14" fill="#fff"/><rect x="63" y="7" width="14" height="14" fill="#fff"/><rect x="21" y="21" width="14" height="14" fill="#fff"/><rect x="77" y="21" width="14" height="14" fill="#fff"/><rect x="21" y="35" width="14" height="14" fill="#fff"/><rect x="77" y="35" width="14" height="14" fill="#fff"/><rect x="21" y="49" width="14" height="14" fill="#fff"/><rect x="35" y="49" width="14" height="14" fill="#fff"/><rect x="49" y="49" width="14" height="14" fill="#fff"/><rect x="63" y="49" width="14" height="14" fill="#fff"/><rect x="21" y="63" width="14" height="14" fill="#fff"/><rect x="21" y="77" width="14" height="14" fill="#fff"/><rect x="21" y="91" width="14" height="14" fill="#fff"/></g>
</svg>